<svg width="34" height="34" viewBox="0 0 34 34" fill="none" xmlns="http://www.w3.org/2000/svg">
<mask id="mask0" mask-type="alpha" maskUnits="userSpaceOnUse" x="-6" y="-6" width="46" height="46">
<rect width="46" height="46" transform="translate(-6 -6)" fill="#C4C4C4"/>
</mask>
<g mask="url(#mask0)">
<path d="M33.813 15.5142L16.9997 0L0.187116 15.5142C-0.0497146 15.7333 -0.0637837 16.102 0.156633 16.3379C0.375877 16.5733 0.748123 16.5867 0.984954 16.3682L2.9306 14.5728V34H12.31H21.6895H31.0689V14.5723L33.0145 16.3677C33.1271 16.4719 33.2707 16.5232 33.4138 16.5232C33.5714 16.5232 33.728 16.4609 33.8429 16.3374C34.0639 16.102 34.0498 15.7333 33.813 15.5142ZM13.4825 32.8349V23.5143C13.4825 21.5866 15.06 20.019 16.9997 20.019C18.9395 20.019 20.517 21.5866 20.517 23.5143V32.8349H13.4825ZM29.8965 32.8349H21.6895V23.5143C21.6895 20.9447 19.5855 18.8539 16.9997 18.8539C14.414 18.8539 12.31 20.9447 12.31 23.5143V32.8349H4.10303V13.4905L16.9997 1.58975L29.8965 13.4905V32.8349Z" fill="black"/>
</g>
</svg>
