<svg width="30" height="29" viewBox="0 0 30 29" fill="none" xmlns="http://www.w3.org/2000/svg">
<mask id="mask0" mask-type="alpha" maskUnits="userSpaceOnUse" x="-7" y="-8" width="46" height="46">
<rect width="46" height="46" transform="translate(-7 -8)" fill="#C4C4C4"/>
</mask>
<g mask="url(#mask0)">
<path d="M2.70856 32.729L5.63794 30.7635C5.64607 30.7584 5.65169 30.7501 5.65982 30.7444C5.66795 30.7387 5.68171 30.7247 5.69296 30.7152C5.74158 30.6738 5.78378 30.6252 5.81802 30.5709L20.8413 4.13239C21.3595 3.22072 21.0524 2.05461 20.1553 1.52795L20.1535 1.52692L17.9882 0.25596C17.0912 -0.270695 15.9438 0.0414058 15.4257 0.953162L15.4246 0.954989C15.4246 0.954989 0.415698 27.391 0.411947 27.398C0.381543 27.456 0.36044 27.5187 0.34942 27.5835C0.34942 27.5988 0.342542 27.6134 0.340666 27.6293C0.33879 27.6452 0.336915 27.6452 0.336289 27.6534L0.00114561 33.3264C-0.0195664 33.6767 0.243046 33.9778 0.587803 33.9989C0.6007 33.9997 0.613596 34.0001 0.626414 34L2.70856 32.729ZM16.5082 1.59047C16.6809 1.28655 17.0633 1.18241 17.3623 1.35788L19.5276 2.62884C19.8275 2.80305 19.9316 3.19125 19.7602 3.49588L19.7596 3.49691L18.8217 5.14916L15.5703 3.24272L16.5082 1.59047ZM14.9463 4.34147L18.1977 6.24791L17.8851 6.7976L14.6368 4.89116L14.9463 4.34147ZM14.0072 5.99308L17.2585 7.89952L5.06582 29.3648L1.81442 27.4583L14.0072 5.99308ZM1.52492 28.756L4.10416 30.2691L1.32546 32.1336L1.52492 28.756Z" transform="translate(10.7676 -4.427) rotate(18)" fill="black"/>
</g>
</svg>
