<svg width="30" height="29" viewBox="0 0 30 29" fill="none" xmlns="http://www.w3.org/2000/svg">
<mask id="mask0" mask-type="alpha" maskUnits="userSpaceOnUse" x="-8" y="-9" width="46" height="46">
<rect width="46" height="46" transform="translate(-8 -9)" fill="#C4C4C4"/>
</mask>
<g mask="url(#mask0)">
<path d="M6.06075 28.5843C5.94959 28.5843 5.83844 28.5499 5.745 28.4817C5.57961 28.3614 5.49692 28.1579 5.53182 27.9566L7.19164 18.2811L0.161961 11.4297C0.0159013 11.2869 -0.0367233 11.0737 0.026104 10.8799C0.0894684 10.6855 0.257545 10.5437 0.459989 10.5142L10.1741 9.10245L14.5188 0.299638C14.609 0.115989 14.7959 1.68996e-08 15 1.68996e-08C15.2045 1.68996e-08 15.3914 0.115989 15.4811 0.299638L19.8253 9.10245L29.5399 10.5142C29.7424 10.5437 29.9099 10.6849 29.9738 10.8799C30.0366 11.0737 29.9845 11.2874 29.8379 11.4297L22.8083 18.2822L24.4676 27.9571C24.5019 28.1585 24.4192 28.362 24.2544 28.4823C24.089 28.6036 23.8693 28.6192 23.6884 28.5231L15 23.9555L6.31045 28.5231C6.23205 28.5639 6.14613 28.5843 6.06075 28.5843ZM1.69076 11.4201L8.14318 17.7098C8.26937 17.8328 8.32737 18.011 8.2973 18.185L6.77387 27.0657L14.7503 22.8729C14.9065 22.7902 15.0929 22.7902 15.2502 22.8729L23.2255 27.0657L21.7026 18.185C21.6725 18.011 21.7305 17.8333 21.8567 17.7098L28.3091 11.4201L19.3925 10.1243C19.2174 10.0991 19.0665 9.98901 18.9881 9.8306L15 1.75111L11.0118 9.83114C10.9334 9.98955 10.7825 10.0996 10.6074 10.1249L1.69076 11.4201Z" fill="black"/>
</g>
</svg>
