<svg width="40" height="40" viewBox="0 0 40 40" fill="none" xmlns="http://www.w3.org/2000/svg">
<mask id="mask0" mask-type="alpha" maskUnits="userSpaceOnUse" x="-3" y="-3" width="46" height="46">
<rect width="46" height="46" transform="translate(-3 -3)" fill="#C4C4C4"/>
</mask>
<g mask="url(#mask0)">
<path d="M3.54058 18.5163C3.4837 18.4919 3.44699 18.4363 3.44699 18.3743V14.4153C3.44699 14.2058 3.39652 13.9966 3.30089 13.8101L1.91275 11.1034C1.90619 11.0905 1.9015 11.0769 1.89869 11.063L1.17485 7.4439C1.1729 7.43406 1.17189 7.42398 1.17189 7.41383V4.43563C1.17189 4.35047 1.24118 4.28117 1.32634 4.28117H4.90731C5.17551 4.28117 5.43426 4.20117 5.6556 4.04992L9.82808 1.19867C9.85382 1.1811 9.88391 1.1718 9.91513 1.1718H11.9398C11.9998 1.1718 12.0549 1.20711 12.0799 1.26172L13.2459 3.79851C13.3232 3.96649 13.4324 4.1139 13.5706 4.23664L16.6663 6.98375C16.6952 7.00945 16.7134 7.04476 16.7174 7.08312L16.9388 9.18548C16.9967 9.73565 17.3959 10.1965 17.9322 10.3323L20.8284 11.0657C20.9347 11.0927 21.0444 11.1063 21.1542 11.1063H23.0927C23.3748 11.1063 23.6552 11.0139 23.8819 10.846L24.7504 10.203C25.0105 10.0104 25.0653 9.64356 24.8726 9.38348C24.6801 9.12348 24.3133 9.06878 24.0531 9.26122L23.1845 9.90426C23.1582 9.92374 23.1256 9.93452 23.0927 9.93452H21.1542C21.1414 9.93452 21.1287 9.93296 21.1163 9.92974L18.2199 9.19626C18.1575 9.18043 18.111 9.12687 18.1043 9.06278L17.8828 6.96031C17.8481 6.63047 17.6923 6.32757 17.4442 6.10735L14.3485 3.36023C14.3324 3.34602 14.3197 3.32875 14.3106 3.30922L13.1448 0.772422C12.9292 0.303203 12.4561 0 11.9398 0H9.91513C9.64695 0 9.38817 0.0800002 9.16686 0.231251L4.99442 3.08243C4.96871 3.1 4.93855 3.1093 4.90739 3.1093H1.32634C0.595005 3.1093 0 3.7043 0 4.43563V7.41375C0 7.50102 0.00867195 7.58859 0.0257814 7.6739L0.749538 11.293C0.773601 11.413 0.81407 11.5289 0.869851 11.6379L2.25798 14.3447C2.26908 14.3664 2.27502 14.3908 2.27502 14.4152V18.3743C2.27502 18.9056 2.59065 19.3842 3.07893 19.5934C3.15424 19.6257 3.23245 19.6409 3.30948 19.6409C3.53683 19.6409 3.75308 19.5077 3.84831 19.2856C3.97582 18.9881 3.838 18.6437 3.54058 18.5163Z" transform="translate(0 2.9574)" fill="#333333"/>
<path d="M34.9556 4.43055C34.5672 4.33797 34.1623 4.42383 33.8448 4.66578L33.6444 4.81851C33.6072 4.84664 33.5601 4.85657 33.515 4.84594L32.6671 4.64406C32.6236 4.63375 32.5869 4.60516 32.5661 4.56563L31.021 1.62227C30.8727 1.33961 30.6272 1.11984 30.3298 1.00351L27.997 0.0910939C27.8424 0.030625 27.6799 0 27.5139 0H26.1187C25.3874 0 24.7925 0.595 24.7925 1.32641V1.79617C24.7925 1.83735 24.7764 1.87617 24.7472 1.90531L24.4225 2.23C24.1721 2.48047 24.0341 2.81351 24.0341 3.16781V4.82953C24.0341 5.18383 24.172 5.51688 24.4225 5.76735L25.5056 6.85039C25.5344 6.87906 25.5509 6.91883 25.5509 6.95953V9.12356C25.5509 9.1927 25.5044 9.25383 25.4379 9.27235L23.384 9.84339C23.2271 9.88704 23.0811 9.95826 22.9502 10.0552L21.9087 10.8263C21.6486 11.0189 21.5939 11.3857 21.7864 11.6457C21.9791 11.9058 22.3459 11.9607 22.606 11.7681L23.6474 10.9971C23.6627 10.9857 23.6797 10.9775 23.6979 10.9724L25.7517 10.4014C26.3235 10.2425 26.7228 9.71704 26.7228 9.12356V6.95937C26.7228 6.60508 26.5849 6.27203 26.3344 6.02156L25.2513 4.93851C25.2226 4.90984 25.2061 4.87 25.2061 4.82937V3.16765C25.2061 3.12703 25.2226 3.08727 25.2513 3.05851L25.5761 2.73375C25.8265 2.4832 25.9645 2.15023 25.9645 1.79602V1.32625C25.9645 1.2411 26.0338 1.1718 26.1189 1.1718H27.5141C27.5333 1.1718 27.5523 1.17539 27.5702 1.18243L29.903 2.09484C29.9376 2.10836 29.9662 2.13398 29.9835 2.16688L31.5285 5.11023C31.7066 5.44969 32.0227 5.69531 32.3957 5.78406L33.2436 5.98594C33.6322 6.07867 34.037 5.99273 34.3545 5.75078L34.555 5.59804C34.5919 5.56984 34.6392 5.55984 34.6843 5.57063C34.7541 5.58727 34.803 5.64906 34.803 5.72086V11.6002C34.803 11.6481 34.7812 11.6924 34.7435 11.7219L33.645 12.5789C33.3205 12.8319 33.1345 13.213 33.1345 13.6245V15.4977C33.1345 15.5451 33.112 15.5908 33.0744 15.6198L29.9479 18.0319C29.9002 18.0688 29.8348 18.0743 29.7814 18.0461L29.1625 17.7189C28.7275 17.4887 28.2044 17.5173 27.7973 17.7939L26.2355 18.8544C25.8953 19.0854 25.6786 19.4685 25.6562 19.8792L25.568 21.49C25.5493 21.8344 25.663 22.1681 25.8886 22.4292L29.3052 26.3865C29.3295 26.4144 29.3427 26.4503 29.3427 26.4873V30.6266C29.3427 30.6661 29.3278 30.7037 29.3007 30.7325L24.7185 35.5945C24.6894 35.6254 24.6485 35.643 24.6061 35.643H19.6181C19.5769 35.643 19.5382 35.627 19.5089 35.5978L17.6677 33.7565C17.4171 33.5059 17.0841 33.368 16.7298 33.368H13.0201C12.9889 33.368 12.9589 33.3588 12.9332 33.3411L11.7131 32.5098L13.8922 27.8872C15.2008 25.111 14.622 21.7876 12.4517 19.6173C9.60704 16.7727 4.97843 16.7727 2.1338 19.6173C-0.0364499 21.7876 -0.615361 25.111 0.693478 27.8871L6.02438 39.1957C6.25821 39.6918 6.74431 40 7.29283 40C7.84127 40 8.32729 39.6918 8.5612 39.1957L11.207 33.5831L12.2731 34.3096C12.4943 34.4602 12.7525 34.5397 13.0201 34.5397H16.7298C16.7704 34.5397 16.8101 34.5563 16.8389 34.585L18.6802 36.4263C18.9309 36.6769 19.2639 36.8149 19.6181 36.8149H24.6061C24.9699 36.8149 25.3217 36.663 25.5713 36.3982L30.1535 31.5362C30.3863 31.289 30.5146 30.966 30.5146 30.6265V26.4872C30.5146 26.169 30.4001 25.8612 30.1922 25.6204L26.7755 21.6632C26.7493 21.6328 26.736 21.5941 26.7381 21.5539L26.8263 19.943C26.8288 19.8952 26.854 19.8506 26.8937 19.8237L28.4556 18.7631C28.5029 18.731 28.5638 18.7276 28.6146 18.7544L29.2334 19.0817C29.6917 19.3243 30.2532 19.2762 30.6636 18.9596L33.7902 16.5475C34.1133 16.2982 34.3064 15.9057 34.3064 15.4974V13.6243C34.3064 13.5764 34.328 13.532 34.3658 13.5026L35.4643 12.6457C35.7887 12.3925 35.9748 12.0114 35.9748 11.5999V5.72086C35.9748 5.10414 35.5557 4.57359 34.9556 4.43055ZM7.50111 38.696C7.44697 38.811 7.34729 38.8281 7.29275 38.8281C7.23814 38.8281 7.13853 38.811 7.08431 38.696L1.75341 27.3874C0.654885 25.0572 1.14075 22.2676 2.96241 20.4459C4.15632 19.2521 5.72446 18.6551 7.29275 18.6551C8.86103 18.6551 10.4292 19.2521 11.6231 20.4459C13.4447 22.2676 13.9306 25.0572 12.8321 27.3874L7.50111 38.696Z" transform="translate(4.02344)" fill="#333333"/>
<path d="M1.03589 1.03589C-0.345296 2.41698 -0.345296 4.66425 1.03589 6.04534C1.70495 6.7144 2.59449 7.08284 3.54067 7.08284C4.48686 7.08284 5.37647 6.7144 6.04546 6.04534C7.42664 4.66417 7.42664 2.41691 6.04546 1.03581C4.66427 -0.345283 2.41699 -0.345283 1.03589 1.03589ZM5.21678 5.21675C4.29264 6.14089 2.78879 6.14097 1.86449 5.21675C0.94026 4.29253 0.94026 2.78871 1.86449 1.86449C2.3266 1.40245 2.93356 1.17136 3.5406 1.17136C4.14763 1.17136 4.75467 1.40245 5.21678 1.86456C5.66452 2.31222 5.91108 2.90753 5.91108 3.54065C5.91108 4.17378 5.66452 4.76902 5.21678 5.21675Z" transform="translate(7.77344 21.3616)" fill="#333333"/>
</g>
</svg>
